<?xml version="1.0" standalone="no"?>
<!DOCTYPE svg PUBLIC "-//W3C//DTD SVG 20010904//EN"
 "http://www.w3.org/TR/2001/REC-SVG-20010904/DTD/svg10.dtd">
<svg version="1.0" xmlns="http://www.w3.org/2000/svg"
 width="128.000000pt" height="128.000000pt" viewBox="0 0 128.000000 128.000000"
 preserveAspectRatio="xMidYMid meet">

<g transform="translate(0.000000,128.000000) scale(0.100000,-0.100000)"
fill="#000000" stroke="none">
<path d="M492 1226 c-205 -50 -389 -234 -437 -437 -19 -81 -19 -228 0 -299 55
-209 226 -380 435 -435 65 -17 207 -19 282 -4 100 20 214 84 292 163 120 120
176 256 176 425 0 113 -16 178 -66 281 -70 141 -223 262 -384 305 -67 18 -225
18 -298 1z m590 -462 c51 -26 48 -86 -5 -110 -29 -13 -29 -14 -5 -10 14 3 33
9 42 12 13 5 16 -1 16 -30 0 -40 -14 -45 -66 -26 -15 6 -29 8 -32 6 -2 -3 16
-11 42 -18 52 -14 56 -25 22 -57 l-23 -22 -44 48 c-28 31 -37 38 -25 18 10
-16 27 -40 38 -52 l20 -21 -29 -6 c-35 -8 -79 7 -110 36 -32 30 -29 38 9 27
47 -13 59 -10 18 5 -28 10 -34 18 -35 42 0 16 6 35 13 42 15 16 16 32 2 32
-14 0 -32 -50 -27 -72 3 -10 2 -20 -3 -23 -12 -7 -20 36 -13 65 7 27 52 80 68
80 5 0 2 -7 -9 -15 -10 -7 -15 -19 -11 -25 5 -8 11 -5 20 7 13 17 14 16 8 -4
-3 -14 -1 -23 6 -23 6 0 11 9 11 20 0 11 3 19 8 18 4 0 16 3 26 7 26 11 51
-21 33 -43 -10 -12 -9 -14 2 -11 8 3 19 13 25 22 23 37 -36 74 -71 45 -14 -12
-15 -11 -5 8 6 12 8 24 5 28 -3 3 2 6 13 6 16 0 17 2 4 11 -20 14 25 2 62 -17z
m-862 -72 c0 -9 -4 -32 -9 -50 -9 -29 -8 -33 7 -30 10 2 20 20 27 48 9 39 15
45 39 48 31 4 31 -1 10 -77 -6 -19 -3 -22 11 -19 12 2 22 16 27 38 5 19 15 40
23 46 19 14 173 18 190 4 9 -7 21 -7 39 0 15 5 52 10 82 10 47 0 54 -2 54 -20
0 -18 -7 -20 -57 -21 l-58 -2 48 -6 c27 -4 53 -14 58 -22 6 -10 9 -10 9 -1 0
8 17 12 50 12 28 0 50 5 50 10 0 6 -21 10 -46 10 -38 0 -45 3 -42 18 2 13 15
18 52 20 28 2 61 1 74 -3 22 -5 23 -9 17 -43 -8 -45 -18 -52 -72 -52 -37 0
-43 -3 -49 -25 -4 -18 -13 -25 -30 -25 -13 0 -24 5 -24 10 0 7 -6 7 -19 0 -11
-5 -47 -10 -80 -10 -51 0 -61 3 -62 18 -1 16 -2 16 -6 0 -4 -15 -16 -18 -75
-18 -63 0 -70 2 -76 22 l-5 22 -8 -22 c-8 -20 -15 -22 -102 -22 -112 0 -123 7
-112 72 4 24 11 51 17 61 12 23 48 23 48 -1z"/>
<path d="M946 663 c-9 -10 -7 -43 3 -43 11 0 21 39 11 45 -4 2 -10 2 -14 -2z"/>
<path d="M971 638 c-11 -28 2 -34 30 -15 l21 15 -21 12 c-18 9 -23 8 -30 -12z"/>
<path d="M930 595 c0 -8 5 -15 10 -15 6 0 10 7 10 15 0 8 -4 15 -10 15 -5 0
-10 -7 -10 -15z"/>
<path d="M960 585 c0 -8 5 -15 10 -15 6 0 10 7 10 15 0 8 -4 15 -10 15 -5 0
-10 -7 -10 -15z"/>
<path d="M390 663 c0 -6 -3 -20 -6 -30 -5 -14 -3 -13 10 4 12 16 29 23 64 25
l47 3 -58 5 c-39 4 -57 1 -57 -7z"/>
<path d="M551 664 c0 -11 3 -14 6 -6 3 7 2 16 -1 19 -3 4 -6 -2 -5 -13z"/>
<path d="M540 614 c0 -8 5 -12 10 -9 6 4 8 11 5 16 -9 14 -15 11 -15 -7z"/>
</g>
</svg>
