<?xml version="1.0" standalone="no"?>
<!DOCTYPE svg PUBLIC "-//W3C//DTD SVG 20010904//EN"
 "http://www.w3.org/TR/2001/REC-SVG-20010904/DTD/svg10.dtd">
<svg version="1.0" xmlns="http://www.w3.org/2000/svg"
 width="192.000000pt" height="192.000000pt" viewBox="0 0 192.000000 192.000000"
 preserveAspectRatio="xMidYMid meet">

<g transform="translate(0.000000,192.000000) scale(0.100000,-0.100000)"
fill="#000000" stroke="none">
<path d="M820 1855 c-335 -53 -611 -287 -719 -610 -141 -421 46 -882 439
-1084 221 -114 432 -136 670 -71 408 112 697 537 651 954 -15 133 -35 198 -96
321 -133 269 -376 445 -674 490 -114 18 -158 17 -271 0z m775 -694 c55 -25 79
-55 79 -97 0 -55 -39 -87 -114 -92 -69 -5 -90 6 -90 50 0 36 35 107 57 115 14
6 14 7 -3 14 -18 7 -18 8 1 9 17 2 16 3 -5 10 -24 8 -24 8 5 9 17 0 48 -8 70
-18z m-142 -99 c-27 -40 -29 -52 -9 -52 19 0 26 -21 14 -43 -5 -11 -7 -30 -3
-44 4 -16 2 -22 -5 -18 -5 3 -10 2 -10 -4 0 -5 -3 -16 -6 -25 -4 -11 -1 -16
10 -16 9 0 16 -4 16 -10 0 -11 -28 -9 -47 3 -7 5 -17 6 -22 3 -5 -3 -11 1 -15
9 -7 19 -26 20 -26 1 0 -16 50 -36 91 -36 27 0 29 3 29 41 0 62 12 75 73 82
30 4 73 14 97 22 24 8 45 13 48 10 7 -7 8 -92 2 -99 -8 -8 -126 21 -161 40
-17 8 -33 13 -35 11 -8 -7 86 -48 138 -60 58 -14 61 -30 13 -77 l-35 -34 -31
30 c-17 16 -44 47 -60 68 -16 21 -29 35 -29 30 0 -14 29 -54 68 -96 l35 -37
-27 -11 c-60 -22 -130 -4 -180 47 -42 44 -71 121 -60 161 4 15 8 34 10 42 2 8
12 22 23 32 12 9 21 21 21 27 0 14 51 40 76 38 20 -1 20 -1 -3 -35z m-1121 -8
c3 -3 -1 -26 -8 -51 -20 -66 -18 -93 6 -93 13 0 22 9 26 28 26 113 28 117 74
120 38 3 42 1 36 -15 -4 -10 -13 -44 -21 -76 l-14 -58 26 3 c23 3 28 11 43 67
19 69 30 81 73 81 22 0 27 -4 23 -17 -3 -10 -15 -57 -27 -105 l-21 -88 -153 0
c-148 0 -152 1 -162 23 -9 20 4 123 22 175 4 12 66 17 77 6z m487 -3 c12 -8
12 -21 3 -77 -6 -38 -10 -68 -9 -69 1 0 38 3 82 6 l80 5 -68 2 c-76 2 -83 9
-73 68 13 65 32 74 152 74 93 0 105 -2 100 -16 -3 -9 -6 -22 -6 -30 0 -11 -18
-14 -80 -14 -97 0 -107 -18 -12 -22 l67 -3 -1 -35 c-1 -19 -7 -47 -13 -62
l-11 -28 -110 0 c-107 0 -110 1 -111 23 l-2 22 -4 -22 c-4 -22 -8 -23 -118
-23 -63 0 -116 4 -119 9 -3 4 2 33 12 62 l17 54 73 3 c92 4 94 22 2 22 -38 0
-70 3 -70 8 0 4 3 17 6 30 6 21 11 22 103 22 53 0 102 -4 110 -9z m490 0 c12
-8 13 -18 2 -64 -7 -31 -19 -58 -27 -61 -9 -3 -44 -6 -80 -6 -63 0 -63 0 -72
-32 -7 -29 -13 -33 -46 -36 -43 -4 -42 -11 -15 91 l10 37 74 0 c43 0 75 4 75
10 0 6 -30 10 -70 10 -72 0 -79 5 -64 44 5 13 24 16 103 16 53 0 102 -4 110
-9z"/>
<path d="M1512 1093 c-11 -10 -24 -29 -27 -43 -7 -23 -7 -23 17 5 23 26 28 28
52 17 17 -8 26 -19 26 -36 0 -29 -16 -43 -55 -49 -27 -4 -26 -4 8 -6 28 -1 44
5 62 24 30 29 32 58 5 85 -25 25 -61 26 -88 3z"/>
<path d="M1414 1067 c-21 -19 -24 -25 -12 -34 10 -9 18 -4 36 23 26 39 15 44
-24 11z"/>
<path d="M1371 1003 c-12 -27 -2 -51 17 -39 16 10 21 45 8 56 -10 7 -16 3 -25
-17z"/>
<path d="M1411 970 c-8 -25 -8 -32 5 -37 19 -7 24 -1 27 32 3 39 -19 42 -32 5z"/>
<path d="M1350 931 c0 -31 25 -49 34 -25 9 24 8 28 -14 42 -18 11 -20 10 -20
-17z"/>
<path d="M1396 903 c-9 -22 10 -41 25 -26 13 13 5 43 -10 43 -5 0 -12 -8 -15
-17z"/>
<path d="M663 913 c15 -2 37 -2 50 0 12 2 0 4 -28 4 -27 0 -38 -2 -22 -4z"/>
</g>
</svg>
